<svg xmlns="http://www.w3.org/2000/svg" viewBox="0 0 720 520" role="img" aria-labelledby="title desc">
  <title id="title">AI 모의면접 일러스트</title><desc id="desc">노트북 화상면접과 AI 분석 리포트</desc>
  <defs><linearGradient id="screen" x1="0" y1="0" x2="1" y2="1"><stop stop-color="#EDF5FF"/><stop offset="1" stop-color="#C7DCFF"/></linearGradient><filter id="shadow" x="-20%" y="-20%" width="140%" height="150%"><feDropShadow dx="0" dy="12" stdDeviation="14" flood-color="#17284D" flood-opacity=".14"/></filter></defs>
  <circle cx="355" cy="272" r="205" fill="#E8F2FF"/>
  <g opacity=".75" fill="#BDD5FF"><circle cx="70" cy="103" r="5"/><circle cx="92" cy="103" r="5"/><circle cx="114" cy="103" r="5"/><circle cx="70" cy="125" r="5"/><circle cx="92" cy="125" r="5"/><circle cx="114" cy="125" r="5"/></g>
  <g filter="url(#shadow)"><rect x="120" y="120" width="465" height="310" rx="22" fill="#17284D"/><rect x="141" y="142" width="423" height="247" rx="10" fill="url(#screen)"/><path d="M86 433h531l-42 43H128z" fill="#9EB9E6"/><path d="M128 433h447l-17 19H146z" fill="#C7D9F5"/><rect x="282" y="447" width="140" height="10" rx="5" fill="#89A9D9"/></g>
  <g>
    <ellipse cx="339" cy="244" rx="61" ry="74" fill="#FFD8BD"/><path d="M279 235c0-72 35-94 76-82 40 11 52 41 42 95-9-17-20-30-42-38-26 28-52 26-76 25Z" fill="#17284D"/><path d="M230 389c7-87 48-117 109-117s106 30 115 117Z" fill="#2D5A9F"/><path d="m314 285 25 24 26-24 18 104h-87z" fill="#F8FBFF"/><circle cx="319" cy="242" r="4" fill="#17284D"/><circle cx="361" cy="242" r="4" fill="#17284D"/><path d="M326 263c9 7 18 7 27 0" fill="none" stroke="#D77B74" stroke-width="4" stroke-linecap="round"/>
  </g>
  <g transform="translate(452 158)"><rect width="96" height="85" rx="13" fill="#fff" stroke="#8CB4F5" stroke-width="3"/><circle cx="48" cy="32" r="17" fill="#FFD7BE"/><path d="M31 30c2-21 34-23 36 0-9-2-14-8-17-13-6 8-11 11-19 13Z" fill="#17284D"/><path d="M18 75c2-25 15-31 30-31s28 6 30 31Z" fill="#4A90E2"/></g>
  <g transform="translate(430 285)" filter="url(#shadow)"><rect width="200" height="145" rx="18" fill="#fff" stroke="#D5E1F2" stroke-width="2"/><circle cx="52" cy="52" r="33" fill="none" stroke="#DCE8FA" stroke-width="8"/><path d="M52 19a33 33 0 1 1-27 52" fill="none" stroke="#3478F6" stroke-width="8" stroke-linecap="round"/><text x="52" y="60" fill="#17284D" font-family="Inter,Arial" font-size="28" font-weight="700" text-anchor="middle">8.7</text><rect x="103" y="30" width="70" height="8" rx="4" fill="#9AB6E3"/><rect x="103" y="49" width="53" height="7" rx="3.5" fill="#D1DFF3"/><rect x="103" y="68" width="62" height="7" rx="3.5" fill="#D1DFF3"/><rect x="25" y="106" width="150" height="9" rx="4.5" fill="#E5EDF9"/><rect x="25" y="106" width="116" height="9" rx="4.5" fill="#4A90E2"/></g>
  <g transform="translate(165 82)"><path d="M0 15C0 7 7 0 15 0h62c8 0 15 7 15 15v27c0 8-7 15-15 15H45L27 72l3-15H15C7 57 0 50 0 42Z" fill="#75A5F9"/><circle cx="28" cy="28" r="5" fill="#fff"/><circle cx="46" cy="28" r="5" fill="#fff"/><circle cx="64" cy="28" r="5" fill="#fff"/></g>
  <g transform="translate(460 55)"><rect width="150" height="63" rx="14" fill="#fff" stroke="#D5E1F2" stroke-width="2"/><rect x="20" y="30" width="7" height="17" rx="3" fill="#A8C3EC"/><rect x="33" y="21" width="7" height="26" rx="3" fill="#7BA9F4"/><rect x="46" y="12" width="7" height="35" rx="3" fill="#4A90E2"/><text x="66" y="36" fill="#536681" font-family="Inter,Arial" font-size="16">AI 분석 중</text></g>
  <g fill="#4A90E2"><circle cx="632" cy="154" r="7"/><circle cx="666" cy="124" r="7"/><circle cx="692" cy="162" r="7"/><circle cx="656" cy="191" r="7"/></g><path d="m632 154 34-30 26 38-36 29-24-37Z" fill="none" stroke="#8AB4F8" stroke-width="3"/>
</svg>
