<svg xmlns="http://www.w3.org/2000/svg" viewBox="0 0 720 520" role="img" aria-labelledby="title desc">
  <title id="title">AI 모의면접 일러스트</title>
  <desc id="desc">노트북 화면 속 면접관과 지원자, AI 분석 점수와 노드 그래프</desc>
  <defs>
    <linearGradient id="screen" x1="0" y1="0" x2="1" y2="1">
      <stop stop-color="var(--auth-info-surface, #eef3fa)" />
      <stop offset="1" stop-color="var(--auth-muted, #f1f5f9)" />
    </linearGradient>
    <filter id="shadow" x="-20%" y="-20%" width="140%" height="150%">
      <feDropShadow dx="0" dy="12" stdDeviation="14" flood-color="#1a2a4a" flood-opacity=".14" />
    </filter>
  </defs>
  <circle cx="355" cy="272" r="205" fill="var(--auth-accent-surface, #f8f3e8)" />
  <g opacity=".75" fill="var(--auth-accent-border, #e4d2ae)">
    <circle cx="70" cy="103" r="5" /><circle cx="92" cy="103" r="5" /><circle cx="114" cy="103" r="5" />
    <circle cx="70" cy="125" r="5" /><circle cx="92" cy="125" r="5" /><circle cx="114" cy="125" r="5" />
  </g>
  <g filter="url(#shadow)">
    <rect x="120" y="120" width="465" height="310" rx="22" fill="var(--auth-primary, #1a2a4a)" />
    <rect x="141" y="142" width="423" height="247" rx="10" fill="url(#screen)" />
    <path d="M86 433h531l-42 43H128z" fill="var(--auth-neutral-border, #e2e8f0)" />
    <path d="M128 433h447l-17 19H146z" fill="var(--auth-muted, #f1f5f9)" />
    <rect x="282" y="447" width="140" height="10" rx="5" fill="var(--auth-secondary, #64748b)" />
  </g>
  <!-- TODO: token 확인 - 인물 피부 표현에 대응하는 semantic token 없음 -->
  <g>
    <ellipse cx="339" cy="244" rx="61" ry="74" fill="#ffd8bd" />
    <path d="M279 235c0-72 35-94 76-82 40 11 52 41 42 95-9-17-20-30-42-38-26 28-52 26-76 25Z" fill="var(--auth-primary, #1a2a4a)" />
    <path d="M230 389c7-87 48-117 109-117s106 30 115 117Z" fill="var(--auth-info, #2e4a72)" />
    <path d="m314 285 25 24 26-24 18 104h-87z" fill="var(--auth-surface, #ffffff)" />
    <circle cx="319" cy="242" r="4" fill="var(--auth-primary, #1a2a4a)" />
    <circle cx="361" cy="242" r="4" fill="var(--auth-primary, #1a2a4a)" />
    <path d="M326 263c9 7 18 7 27 0" fill="none" stroke="var(--auth-error, #c0392b)" stroke-width="4" stroke-linecap="round" />
  </g>
  <g transform="translate(452 158)">
    <rect width="96" height="85" rx="13" fill="var(--auth-surface, #ffffff)" stroke="var(--auth-accent, #c9a96e)" stroke-width="3" />
    <circle cx="48" cy="32" r="17" fill="#ffd7be" />
    <path d="M31 30c2-21 34-23 36 0-9-2-14-8-17-13-6 8-11 11-19 13Z" fill="var(--auth-primary, #1a2a4a)" />
    <path d="M18 75c2-25 15-31 30-31s28 6 30 31Z" fill="var(--auth-info, #2e4a72)" />
  </g>
  <g transform="translate(430 285)" filter="url(#shadow)">
    <rect width="200" height="145" rx="18" fill="var(--auth-surface, #ffffff)" stroke="var(--auth-neutral-border, #e2e8f0)" stroke-width="2" />
    <circle cx="52" cy="52" r="33" fill="none" stroke="var(--auth-accent-surface, #f8f3e8)" stroke-width="8" />
    <path d="M52 19a33 33 0 1 1-27 52" fill="none" stroke="var(--auth-accent, #c9a96e)" stroke-width="8" stroke-linecap="round" />
    <text x="52" y="60" fill="var(--auth-primary, #1a2a4a)" font-family="Pretendard,Arial" font-size="24" font-weight="700" text-anchor="middle">8.7</text>
    <rect x="103" y="30" width="70" height="8" rx="4" fill="var(--auth-secondary, #64748b)" />
    <rect x="103" y="49" width="53" height="7" rx="3.5" fill="var(--auth-neutral-border, #e2e8f0)" />
    <rect x="103" y="68" width="62" height="7" rx="3.5" fill="var(--auth-neutral-border, #e2e8f0)" />
    <rect x="25" y="106" width="150" height="9" rx="4.5" fill="var(--auth-muted, #f1f5f9)" />
    <rect x="25" y="106" width="116" height="9" rx="4.5" fill="var(--auth-accent, #c9a96e)" />
  </g>
  <g transform="translate(165 82)">
    <path d="M0 15C0 7 7 0 15 0h62c8 0 15 7 15 15v27c0 8-7 15-15 15H45L27 72l3-15H15C7 57 0 50 0 42Z" fill="var(--auth-accent, #c9a96e)" />
    <circle cx="28" cy="28" r="5" fill="var(--auth-surface, #ffffff)" />
    <circle cx="46" cy="28" r="5" fill="var(--auth-surface, #ffffff)" />
    <circle cx="64" cy="28" r="5" fill="var(--auth-surface, #ffffff)" />
  </g>
  <g transform="translate(460 55)">
    <rect width="150" height="63" rx="14" fill="var(--auth-surface, #ffffff)" stroke="var(--auth-neutral-border, #e2e8f0)" stroke-width="2" />
    <rect x="20" y="30" width="7" height="17" rx="3" fill="var(--auth-accent-border, #e4d2ae)" />
    <rect x="33" y="21" width="7" height="26" rx="3" fill="var(--auth-accent, #c9a96e)" opacity=".72" />
    <rect x="46" y="12" width="7" height="35" rx="3" fill="var(--auth-accent, #c9a96e)" />
    <text x="66" y="36" fill="var(--auth-secondary, #64748b)" font-family="Pretendard,Arial" font-size="16">AI 분석 중</text>
  </g>
  <g fill="var(--auth-accent, #c9a96e)">
    <circle cx="632" cy="154" r="7" /><circle cx="666" cy="124" r="7" /><circle cx="692" cy="162" r="7" /><circle cx="656" cy="191" r="7" />
  </g>
  <path d="m632 154 34-30 26 38-36 29-24-37Z" fill="none" stroke="var(--auth-accent-border, #e4d2ae)" stroke-width="3" />
</svg>
