<svg xmlns="http://www.w3.org/2000/svg" viewBox="0 0 800 470" role="img" aria-labelledby="title desc">
  <title id="title">면접 성장 과정 일러스트</title>
  <desc id="desc">연습 면접, 피드백 분석, 자신감 향상의 세 단계</desc>
  <defs>
    <linearGradient id="card" x1="0" y1="0" x2="1" y2="1">
      <stop stop-color="var(--auth-surface, #ffffff)" />
      <stop offset="1" stop-color="var(--auth-accent-surface, #f8f3e8)" />
    </linearGradient>
    <filter id="shadow">
      <feDropShadow dx="0" dy="10" stdDeviation="12" flood-color="#1a2a4a" flood-opacity=".12" />
    </filter>
  </defs>
  <path d="M132 196c72-84 150-82 213 1M423 168c70-85 137-65 186 14" fill="none" stroke="var(--auth-accent, #c9a96e)" stroke-width="4" stroke-dasharray="7 9" />
  <path d="m333 181 14 18-22 4M595 165l17 18-23 6" fill="none" stroke="var(--auth-accent, #c9a96e)" stroke-width="4" stroke-linecap="round" stroke-linejoin="round" />
  <!-- TODO: token 확인 - 인물 피부 표현에 대응하는 semantic token 없음 -->
  <g transform="translate(35 160)">
    <circle cx="105" cy="72" r="39" fill="#ffd6bc" />
    <path d="M68 68c0-45 24-59 51-51 21 6 32 23 28 57-13-6-24-16-30-28-10 14-27 23-49 22Z" fill="var(--auth-primary, #1a2a4a)" />
    <path d="M42 176c3-64 30-82 63-82s61 18 65 82Z" fill="var(--auth-info, #2e4a72)" />
    <rect x="107" y="102" width="155" height="98" rx="10" fill="var(--auth-primary, #1a2a4a)" />
    <rect x="118" y="113" width="133" height="75" rx="5" fill="var(--auth-muted, #f1f5f9)" />
    <circle cx="184" cy="148" r="22" fill="var(--auth-surface, #ffffff)" />
    <path d="m177 135 20 13-20 13Z" fill="var(--auth-accent, #c9a96e)" />
  </g>
  <g transform="translate(302 85)" filter="url(#shadow)">
    <rect width="185" height="245" rx="20" fill="url(#card)" stroke="var(--auth-accent-border, #e4d2ae)" stroke-width="2" />
    <circle cx="92" cy="69" r="39" fill="none" stroke="var(--auth-accent-surface, #f8f3e8)" stroke-width="9" />
    <path d="M92 30a39 39 0 1 1-33 60" fill="none" stroke="var(--auth-accent, #c9a96e)" stroke-width="9" stroke-linecap="round" />
    <text x="92" y="79" text-anchor="middle" fill="var(--auth-primary, #1a2a4a)" font-family="Pretendard,Arial" font-size="32" font-weight="700">85</text>
    <rect x="30" y="132" width="125" height="8" rx="4" fill="var(--auth-secondary, #64748b)" />
    <rect x="30" y="154" width="96" height="8" rx="4" fill="var(--auth-neutral-border, #e2e8f0)" />
    <rect x="30" y="188" width="20" height="20" rx="5" fill="var(--auth-accent-surface, #f8f3e8)" />
    <path d="m36 198 4 4 7-9" fill="none" stroke="var(--auth-accent, #c9a96e)" stroke-width="3" />
    <rect x="62" y="194" width="93" height="8" rx="4" fill="var(--auth-secondary, #64748b)" />
  </g>
  <g transform="translate(542 100)">
    <circle cx="95" cy="69" r="42" fill="#ffd6bc" />
    <path d="M54 61c3-48 32-61 63-51 28 9 31 33 24 59-8-19-20-31-37-38-10 15-25 25-50 30Z" fill="var(--auth-primary, #1a2a4a)" />
    <path d="M39 181c3-69 27-91 60-91 37 0 65 22 70 91Z" fill="var(--auth-info, #2e4a72)" />
    <path d="M69 103c12 11 25 14 37 1l15 77H52Z" fill="var(--auth-surface, #ffffff)" />
    <path d="m155 78 55-65" stroke="var(--auth-accent, #c9a96e)" stroke-width="12" stroke-linecap="round" />
    <path d="m186 13 31-8-5 32" fill="var(--auth-accent, #c9a96e)" />
    <path d="M6 89c31 0 49 18 57 46" fill="none" stroke="var(--auth-accent, #c9a96e)" stroke-width="11" stroke-linecap="round" />
    <circle cx="80" cy="65" r="4" fill="var(--auth-primary, #1a2a4a)" />
    <circle cx="112" cy="65" r="4" fill="var(--auth-primary, #1a2a4a)" />
    <path d="M84 82c10 7 18 7 27 0" fill="none" stroke="var(--auth-error, #c0392b)" stroke-width="4" stroke-linecap="round" />
  </g>
  <g font-family="Pretendard,Arial,sans-serif">
    <g transform="translate(20 382)">
      <circle cx="24" cy="24" r="24" fill="var(--auth-accent-surface, #f8f3e8)" stroke="var(--auth-accent-border, #e4d2ae)" />
      <text x="24" y="30" text-anchor="middle" fill="var(--auth-primary, #1a2a4a)" font-size="14" font-weight="700">01</text>
      <text x="59" y="21" fill="var(--auth-primary, #1a2a4a)" font-size="20" font-weight="700">연습 면접</text>
      <text x="59" y="44" fill="var(--auth-secondary, #64748b)" font-size="14">AI와 실전처럼 연습</text>
    </g>
    <g transform="translate(270 382)">
      <circle cx="24" cy="24" r="24" fill="var(--auth-accent-surface, #f8f3e8)" stroke="var(--auth-accent-border, #e4d2ae)" />
      <text x="24" y="30" text-anchor="middle" fill="var(--auth-primary, #1a2a4a)" font-size="14" font-weight="700">02</text>
      <text x="59" y="21" fill="var(--auth-primary, #1a2a4a)" font-size="20" font-weight="700">피드백 분석</text>
      <text x="59" y="44" fill="var(--auth-secondary, #64748b)" font-size="14">AI가 강점과 개선점을 분석</text>
    </g>
    <g transform="translate(550 382)">
      <circle cx="24" cy="24" r="24" fill="var(--auth-accent-surface, #f8f3e8)" stroke="var(--auth-accent-border, #e4d2ae)" />
      <text x="24" y="30" text-anchor="middle" fill="var(--auth-primary, #1a2a4a)" font-size="14" font-weight="700">03</text>
      <text x="59" y="21" fill="var(--auth-primary, #1a2a4a)" font-size="20" font-weight="700">자신감 향상</text>
      <text x="59" y="44" fill="var(--auth-secondary, #64748b)" font-size="14">꾸준한 연습으로 성장</text>
    </g>
  </g>
</svg>
